<svg width="23" height="23" viewBox="0 0 23 23" fill="none" xmlns="http://www.w3.org/2000/svg">
<path d="M14.0504 5C15.0272 5.19057 15.9248 5.66826 16.6285 6.37194C17.3322 7.07561 17.8099 7.97326 18.0004 8.95M14.0504 1C16.0797 1.22544 17.972 2.13417 19.4167 3.57701C20.8613 5.01984 21.7724 6.91101 22.0004 8.94M21.0004 16.92V19.92C21.0016 20.1985 20.9445 20.4742 20.8329 20.7293C20.7214 20.9845 20.5577 21.2136 20.3525 21.4019C20.1473 21.5901 19.905 21.7335 19.6412 21.8227C19.3773 21.9119 19.0978 21.9451 18.8204 21.92C15.7433 21.5856 12.7874 20.5341 10.1904 18.85C7.77425 17.3147 5.72576 15.2662 4.19042 12.85C2.5004 10.2412 1.44866 7.27099 1.12042 4.18C1.09543 3.90347 1.1283 3.62476 1.21692 3.36162C1.30555 3.09849 1.44799 2.85669 1.63519 2.65162C1.82238 2.44655 2.05023 2.28271 2.30421 2.17052C2.5582 2.05833 2.83276 2.00026 3.11042 2H6.11042C6.59573 1.99522 7.06621 2.16708 7.43418 2.48353C7.80215 2.79999 8.0425 3.23945 8.11042 3.72C8.23704 4.68007 8.47187 5.62273 8.81042 6.53C8.94497 6.88792 8.97408 7.27691 8.89433 7.65088C8.81457 8.02485 8.62928 8.36811 8.36042 8.64L7.09042 9.91C8.51398 12.4135 10.5869 14.4864 13.0904 15.91L14.3604 14.64C14.6323 14.3711 14.9756 14.1858 15.3495 14.1061C15.7235 14.0263 16.1125 14.0555 16.4704 14.19C17.3777 14.5286 18.3204 14.7634 19.2804 14.89C19.7662 14.9585 20.2098 15.2032 20.527 15.5775C20.8441 15.9518 21.0126 16.4296 21.0004 16.92Z" stroke="#FE7634" stroke-width="2" stroke-linecap="round" stroke-linejoin="round"/>
</svg>
