<svg width="126.392090" height="34.261131" viewBox="0 0 126.392 34.2611" fill="none" xmlns="http://www.w3.org/2000/svg" xmlns:xlink="http://www.w3.org/1999/xlink">
	<desc>
			Created with Pixso.
	</desc>
	<defs/>
	<path id="Vector" d="M111.21 17.89L126.31 17.89L126.31 21.89L111.21 21.89L111.21 17.89ZM111.21 8.91L123.49 8.91L123.49 12.92L111.21 12.92L111.21 8.91ZM111.21 0.01L126.31 0.01L126.31 4.03L111.21 4.03L111.21 0.01ZM81.65 0L85.28 0C85.39 0.05 89.07 3.92 96.34 11.62C98.81 14.23 100.1 15.57 100.21 15.62L100.21 0L104.25 0L104.25 21.88L100.61 21.88C100.51 21.82 96.82 17.95 89.56 10.26C87.08 7.64 85.79 6.3 85.68 6.26L85.68 21.88L81.65 21.88L81.65 0ZM71.47 0.02L75.49 0.02L75.49 21.91L71.47 21.91L71.47 0.02ZM46.61 0.02L50.64 0.02L50.64 17.9L66.87 17.9L66.87 21.91L46.61 21.91L46.61 0.02ZM24.98 17.89L40 17.89L40 21.89L24.98 21.89L24.98 17.89ZM24.98 8.91L37.18 8.91L37.18 12.92L24.98 12.92L24.98 8.91ZM24.98 0.01L40 0.01L40 4.03L24.98 4.03L24.98 0.01ZM4.04 4.01L4.04 12.36L10.09 12.36C12.72 12.36 14.48 11.36 15.18 9.3C15.35 8.82 15.34 8.4 15.34 8.1C15.34 6.57 14.47 5.38 12.76 4.5C12.14 4.19 11.34 4.01 10.33 4.01L4.04 4.01ZM0 0.01L10.26 0.01C12.82 0.01 14.97 0.73 16.63 2.25C18.48 3.93 19.37 5.96 19.37 8.27C19.37 11.22 17.9 13.7 14.78 15.4C14.07 15.78 13.64 15.83 13.64 15.88C13.64 15.93 15.16 17.93 18.17 21.89L13.24 21.89C12.98 21.68 11.63 19.94 9.21 16.68C9.05 16.47 8.94 16.36 8.88 16.36L4.04 16.36L4.04 21.89L0 21.89L0 0.01Z" fill="#FFFFFF" fill-opacity="1.000000" fill-rule="nonzero"/>
	<path id="Vector" d="M123.65 33.67L126.39 33.67L126.39 34.13L123.13 34.13L123.13 29.04L126.3 29.04L126.3 29.5L123.65 29.5L123.65 31.25L126.13 31.25L126.13 31.71L123.65 31.71L123.65 33.67ZM117.75 31.3L118.65 31.3C119.07 31.3 119.39 31.23 119.62 31.08C119.85 30.93 119.96 30.7 119.96 30.4C119.96 30.23 119.93 30.09 119.87 29.97C119.8 29.86 119.72 29.77 119.61 29.69C119.5 29.62 119.36 29.57 119.2 29.53C119.04 29.5 118.87 29.48 118.67 29.48L117.75 29.48L117.75 31.3L117.75 31.3ZM117.75 34.13L117.23 34.13L117.23 29.04L118.73 29.04C118.98 29.04 119.21 29.06 119.43 29.11C119.64 29.16 119.83 29.24 119.98 29.34C120.14 29.45 120.26 29.59 120.35 29.76C120.44 29.94 120.48 30.15 120.48 30.4C120.48 30.58 120.45 30.75 120.38 30.91C120.31 31.06 120.22 31.19 120.1 31.31C119.99 31.42 119.85 31.51 119.69 31.58C119.53 31.64 119.36 31.69 119.17 31.71L120.67 34.13L120.03 34.13L118.62 31.75L117.75 31.75L117.75 34.13L117.75 34.13ZM111.31 32.32L113.57 32.32L112.44 29.61L111.31 32.32ZM110.56 34.13L109.99 34.13L112.2 29.04L112.71 29.04L114.91 34.13L114.33 34.13L113.76 32.79L111.12 32.79L110.56 34.13ZM108.22 33.3C108.13 33.43 108.03 33.55 107.9 33.67C107.78 33.78 107.64 33.88 107.48 33.97C107.32 34.06 107.14 34.13 106.94 34.18C106.75 34.23 106.54 34.26 106.3 34.26C105.92 34.26 105.56 34.19 105.23 34.06C104.91 33.92 104.62 33.74 104.39 33.5C104.15 33.26 103.97 32.98 103.84 32.65C103.7 32.33 103.64 31.97 103.64 31.58C103.64 31.19 103.7 30.84 103.84 30.51C103.97 30.19 104.16 29.9 104.4 29.67C104.64 29.43 104.92 29.24 105.25 29.11C105.57 28.98 105.92 28.91 106.3 28.91C106.49 28.91 106.68 28.93 106.86 28.97C107.04 29.01 107.21 29.06 107.37 29.13C107.53 29.2 107.67 29.29 107.8 29.39C107.93 29.49 108.04 29.6 108.13 29.72L107.69 30.04C107.64 29.96 107.57 29.87 107.48 29.79C107.39 29.71 107.28 29.64 107.16 29.58C107.04 29.52 106.91 29.46 106.77 29.43C106.63 29.39 106.48 29.37 106.31 29.37C105.98 29.37 105.68 29.43 105.42 29.55C105.16 29.67 104.93 29.83 104.75 30.03C104.57 30.24 104.43 30.47 104.33 30.74C104.24 31.01 104.19 31.29 104.19 31.58C104.19 31.88 104.24 32.16 104.34 32.43C104.43 32.69 104.58 32.93 104.76 33.13C104.94 33.34 105.16 33.5 105.43 33.62C105.69 33.74 105.98 33.8 106.31 33.8C106.61 33.8 106.89 33.74 107.15 33.62C107.41 33.5 107.64 33.3 107.82 33.04L108.22 33.3ZM94.97 33.67L97.71 33.67L97.71 34.13L94.45 34.13L94.45 29.04L97.62 29.04L97.62 29.5L94.97 29.5L94.97 31.25L97.45 31.25L97.45 31.71L94.97 31.71L94.97 33.67L94.97 33.67ZM91.98 33.3C91.89 33.43 91.79 33.55 91.67 33.67C91.54 33.78 91.4 33.88 91.24 33.97C91.08 34.06 90.9 34.13 90.71 34.18C90.51 34.23 90.3 34.26 90.07 34.26C89.68 34.26 89.32 34.19 89 34.06C88.67 33.92 88.39 33.74 88.15 33.5C87.91 33.26 87.73 32.98 87.6 32.65C87.47 32.33 87.4 31.97 87.4 31.58C87.4 31.19 87.47 30.84 87.6 30.51C87.74 30.19 87.92 29.9 88.16 29.67C88.4 29.43 88.68 29.24 89.01 29.11C89.33 28.98 89.69 28.91 90.07 28.91C90.25 28.91 90.44 28.93 90.62 28.97C90.8 29.01 90.97 29.06 91.13 29.13C91.29 29.2 91.43 29.29 91.56 29.39C91.69 29.49 91.8 29.6 91.89 29.72L91.45 30.04C91.4 29.96 91.33 29.87 91.24 29.79C91.15 29.71 91.05 29.64 90.93 29.58C90.81 29.52 90.67 29.46 90.53 29.43C90.39 29.39 90.24 29.37 90.07 29.37C89.74 29.37 89.44 29.43 89.18 29.55C88.92 29.67 88.7 29.83 88.51 30.03C88.33 30.24 88.19 30.47 88.09 30.74C88 31.01 87.95 31.29 87.95 31.58C87.95 31.88 88 32.16 88.1 32.43C88.2 32.69 88.34 32.93 88.52 33.13C88.7 33.34 88.93 33.5 89.19 33.62C89.45 33.74 89.75 33.8 90.07 33.8C90.37 33.8 90.65 33.74 90.91 33.62C91.18 33.5 91.4 33.3 91.58 33.04L91.98 33.3ZM81.89 32.32L84.15 32.32L83.02 29.61L81.89 32.32ZM81.14 34.13L80.57 34.13L82.78 29.04L83.29 29.04L85.48 34.13L84.9 34.13L84.34 32.79L81.7 32.79L81.14 34.13ZM76.45 34.13L75.93 34.13L75.93 29.04L79.02 29.04L79.02 29.5L76.45 29.5L76.45 31.26L78.84 31.26L78.84 31.72L76.45 31.72L76.45 34.13ZM67.58 33.67L69.97 33.67L69.97 34.13L67.06 34.13L67.06 29.04L67.58 29.04L67.58 33.67ZM61.15 32.32L63.4 32.32L62.28 29.61L61.15 32.32ZM60.4 34.13L59.83 34.13L62.04 29.04L62.54 29.04L64.74 34.13L64.16 34.13L63.6 32.79L60.95 32.79L60.4 34.13ZM56.97 33.37L56.98 33.37L56.98 29.04L57.5 29.04L57.5 34.13L56.85 34.13L53.88 29.75L53.86 29.75L53.86 34.13L53.34 34.13L53.34 29.04L53.99 29.04L56.97 33.37ZM50.14 31.59C50.14 31.29 50.09 31.01 49.99 30.74C49.9 30.47 49.76 30.24 49.57 30.03C49.39 29.83 49.17 29.67 48.91 29.55C48.64 29.43 48.35 29.37 48.02 29.37C47.69 29.37 47.4 29.43 47.13 29.55C46.87 29.67 46.65 29.83 46.47 30.03C46.28 30.24 46.14 30.47 46.05 30.74C45.95 31.01 45.9 31.29 45.9 31.59C45.9 31.88 45.95 32.16 46.05 32.43C46.14 32.7 46.28 32.93 46.47 33.14C46.65 33.34 46.87 33.5 47.13 33.62C47.4 33.74 47.69 33.8 48.02 33.8C48.35 33.8 48.64 33.74 48.91 33.62C49.17 33.5 49.39 33.34 49.57 33.14C49.76 32.93 49.9 32.7 49.99 32.43C50.09 32.16 50.14 31.88 50.14 31.59ZM50.69 31.58C50.69 31.97 50.62 32.33 50.48 32.65C50.35 32.98 50.16 33.26 49.92 33.5C49.69 33.74 49.4 33.92 49.08 34.06C48.75 34.19 48.4 34.26 48.02 34.26C47.64 34.26 47.29 34.19 46.96 34.06C46.64 33.92 46.36 33.74 46.12 33.5C45.88 33.26 45.69 32.98 45.56 32.65C45.42 32.33 45.35 31.97 45.35 31.58C45.35 31.19 45.42 30.84 45.56 30.51C45.69 30.19 45.88 29.9 46.12 29.67C46.35 29.43 46.64 29.24 46.96 29.11C47.29 28.98 47.64 28.91 48.02 28.91C48.4 28.91 48.75 28.98 49.08 29.11C49.4 29.24 49.69 29.43 49.92 29.67C50.16 29.9 50.35 30.19 50.48 30.51C50.62 30.84 50.69 31.19 50.69 31.58ZM42.7 34.13L42.18 34.13L42.18 29.04L42.7 29.04L42.7 34.13ZM39.01 29.86C38.9 29.7 38.76 29.58 38.58 29.49C38.41 29.39 38.2 29.35 37.96 29.35C37.83 29.35 37.7 29.37 37.57 29.4C37.44 29.44 37.32 29.5 37.22 29.58C37.11 29.66 37.03 29.76 36.96 29.88C36.9 30 36.86 30.14 36.86 30.3C36.86 30.47 36.89 30.6 36.96 30.71C37.02 30.81 37.1 30.9 37.21 30.97C37.31 31.05 37.43 31.11 37.56 31.16C37.69 31.21 37.83 31.25 37.97 31.3C38.15 31.36 38.33 31.42 38.51 31.49C38.69 31.56 38.85 31.64 39 31.75C39.14 31.86 39.26 32 39.35 32.16C39.44 32.33 39.49 32.54 39.49 32.79C39.49 33.04 39.44 33.26 39.34 33.45C39.24 33.63 39.12 33.78 38.96 33.9C38.81 34.02 38.63 34.11 38.43 34.17C38.23 34.23 38.03 34.26 37.82 34.26C37.67 34.26 37.52 34.24 37.36 34.21C37.21 34.18 37.06 34.13 36.92 34.07C36.78 34.01 36.65 33.93 36.53 33.83C36.41 33.74 36.3 33.63 36.21 33.5L36.66 33.17C36.77 33.35 36.93 33.5 37.13 33.63C37.33 33.75 37.56 33.81 37.83 33.81C37.96 33.81 38.09 33.79 38.23 33.75C38.36 33.71 38.48 33.65 38.59 33.56C38.7 33.48 38.79 33.37 38.86 33.25C38.93 33.13 38.97 32.99 38.97 32.82C38.97 32.65 38.93 32.5 38.86 32.38C38.79 32.27 38.7 32.17 38.58 32.09C38.47 32.01 38.33 31.94 38.18 31.89C38.04 31.84 37.88 31.78 37.72 31.73C37.55 31.68 37.38 31.62 37.22 31.55C37.05 31.49 36.91 31.4 36.78 31.29C36.65 31.18 36.54 31.05 36.46 30.89C36.38 30.73 36.34 30.54 36.34 30.31C36.34 30.07 36.39 29.85 36.49 29.68C36.59 29.5 36.72 29.35 36.88 29.24C37.04 29.12 37.21 29.04 37.4 28.99C37.6 28.93 37.79 28.91 37.98 28.91C38.32 28.91 38.62 28.97 38.86 29.09C39.11 29.21 39.3 29.36 39.42 29.53L39.01 29.86ZM33.36 29.86C33.25 29.7 33.11 29.58 32.94 29.49C32.77 29.39 32.55 29.35 32.31 29.35C32.18 29.35 32.06 29.37 31.93 29.4C31.8 29.44 31.68 29.5 31.57 29.58C31.47 29.66 31.38 29.76 31.32 29.88C31.25 30 31.22 30.14 31.22 30.3C31.22 30.47 31.25 30.6 31.31 30.71C31.37 30.81 31.46 30.9 31.56 30.97C31.66 31.05 31.78 31.11 31.91 31.16C32.04 31.21 32.18 31.25 32.33 31.3C32.51 31.36 32.69 31.42 32.86 31.49C33.05 31.56 33.21 31.64 33.35 31.75C33.5 31.86 33.61 32 33.7 32.16C33.8 32.33 33.84 32.54 33.84 32.79C33.84 33.04 33.79 33.26 33.7 33.45C33.6 33.63 33.47 33.78 33.32 33.9C33.16 34.02 32.98 34.11 32.78 34.17C32.58 34.23 32.38 34.26 32.18 34.26C32.03 34.26 31.87 34.24 31.72 34.21C31.56 34.18 31.42 34.13 31.28 34.07C31.14 34.01 31.01 33.93 30.89 33.83C30.77 33.74 30.66 33.63 30.57 33.5L31.02 33.17C31.13 33.35 31.28 33.5 31.48 33.63C31.68 33.75 31.92 33.81 32.19 33.81C32.32 33.81 32.45 33.79 32.58 33.75C32.72 33.71 32.84 33.65 32.95 33.56C33.06 33.48 33.15 33.37 33.22 33.25C33.29 33.13 33.32 32.99 33.32 32.82C33.32 32.65 33.29 32.5 33.22 32.38C33.15 32.27 33.05 32.17 32.94 32.09C32.82 32.01 32.69 31.94 32.54 31.89C32.39 31.84 32.23 31.78 32.07 31.73C31.9 31.68 31.74 31.62 31.57 31.55C31.41 31.49 31.26 31.4 31.13 31.29C31 31.18 30.9 31.05 30.82 30.89C30.74 30.73 30.7 30.54 30.7 30.31C30.7 30.07 30.75 29.85 30.85 29.68C30.94 29.5 31.07 29.35 31.23 29.24C31.39 29.12 31.57 29.04 31.76 28.99C31.95 28.93 32.14 28.91 32.33 28.91C32.68 28.91 32.97 28.97 33.22 29.09C33.47 29.21 33.65 29.36 33.78 29.53L33.36 29.86ZM25.56 33.67L28.3 33.67L28.3 34.13L25.04 34.13L25.04 29.04L28.21 29.04L28.21 29.5L25.56 29.5L25.56 31.25L28.04 31.25L28.04 31.71L25.56 31.71L25.56 33.67L25.56 33.67ZM19.92 34.13L19.4 34.13L19.4 29.04L22.49 29.04L22.49 29.5L19.92 29.5L19.92 31.26L22.31 31.26L22.31 31.72L19.92 31.72L19.92 34.13ZM16.2 31.59C16.2 31.29 16.15 31.01 16.06 30.74C15.96 30.47 15.82 30.24 15.64 30.03C15.45 29.83 15.23 29.67 14.97 29.55C14.71 29.43 14.41 29.37 14.08 29.37C13.76 29.37 13.46 29.43 13.2 29.55C12.94 29.67 12.71 29.83 12.53 30.03C12.35 30.24 12.21 30.47 12.11 30.74C12.01 31.01 11.97 31.29 11.97 31.59C11.97 31.88 12.01 32.16 12.11 32.43C12.21 32.7 12.35 32.93 12.53 33.14C12.71 33.34 12.94 33.5 13.2 33.62C13.46 33.74 13.76 33.8 14.08 33.8C14.41 33.8 14.71 33.74 14.97 33.62C15.23 33.5 15.45 33.34 15.64 33.14C15.82 32.93 15.96 32.7 16.06 32.43C16.15 32.16 16.2 31.88 16.2 31.59ZM16.75 31.58C16.75 31.97 16.68 32.33 16.55 32.65C16.41 32.98 16.23 33.26 15.99 33.5C15.75 33.74 15.47 33.92 15.14 34.06C14.82 34.19 14.46 34.26 14.08 34.26C13.7 34.26 13.35 34.19 13.02 34.06C12.7 33.92 12.42 33.74 12.18 33.5C11.94 33.26 11.75 32.98 11.62 32.65C11.48 32.33 11.42 31.97 11.42 31.58C11.42 31.19 11.48 30.84 11.62 30.51C11.75 30.19 11.94 29.9 12.18 29.67C12.42 29.43 12.7 29.24 13.02 29.11C13.35 28.98 13.7 28.91 14.08 28.91C14.46 28.91 14.82 28.98 15.14 29.11C15.47 29.24 15.75 29.43 15.99 29.67C16.23 29.9 16.41 30.19 16.55 30.51C16.68 30.84 16.75 31.19 16.75 31.58ZM6.31 31.3L7.22 31.3C7.63 31.3 7.96 31.23 8.18 31.08C8.41 30.93 8.52 30.7 8.52 30.4C8.52 30.23 8.49 30.09 8.43 29.97C8.37 29.86 8.28 29.77 8.17 29.69C8.06 29.62 7.92 29.57 7.76 29.53C7.61 29.5 7.43 29.48 7.24 29.48L6.31 29.48L6.31 31.3L6.31 31.3ZM6.31 34.13L5.79 34.13L5.79 29.04L7.29 29.04C7.55 29.04 7.78 29.06 7.99 29.11C8.21 29.16 8.39 29.24 8.55 29.34C8.7 29.45 8.83 29.59 8.91 29.76C9 29.94 9.04 30.15 9.04 30.4C9.04 30.58 9.01 30.75 8.94 30.91C8.88 31.06 8.78 31.19 8.67 31.31C8.55 31.42 8.41 31.51 8.26 31.58C8.1 31.64 7.92 31.69 7.74 31.71L9.23 34.13L8.6 34.13L7.18 31.75L6.31 31.75L6.31 34.13L6.31 34.13ZM0.55 31.32L1.43 31.32C1.84 31.32 2.15 31.25 2.36 31.09C2.58 30.93 2.68 30.7 2.68 30.4C2.68 30.08 2.57 29.85 2.35 29.7C2.13 29.56 1.83 29.48 1.43 29.48L0.55 29.48L0.55 31.32ZM42.41 27.59C42.58 27.59 42.72 27.73 42.72 27.9C42.72 28.06 42.58 28.2 42.41 28.2C42.24 28.2 42.1 28.06 42.1 27.9C42.1 27.73 42.24 27.59 42.41 27.59ZM0.03 29.04L1.47 29.04C1.74 29.04 1.97 29.07 2.18 29.12C2.4 29.18 2.58 29.26 2.73 29.37C2.88 29.48 3 29.63 3.08 29.8C3.16 29.97 3.2 30.17 3.2 30.4C3.2 30.63 3.16 30.83 3.08 31C2.99 31.17 2.87 31.31 2.72 31.42C2.57 31.53 2.39 31.62 2.17 31.68C1.96 31.73 1.72 31.76 1.46 31.76L0.55 31.76L0.55 34.13L0.03 34.13L0.03 29.04Z" fill="#FFFFFF" fill-opacity="1.000000" fill-rule="nonzero"/>
</svg>
